<svg id="Layer_1" data-name="Layer 1" xmlns="http://www.w3.org/2000/svg" viewBox="0 0 363.07 319.78"><path d="M235,320H390c2,0,4,.11,6-.08a10.57,10.57,0,0,0,.75-21,41.09,41.09,0,0,0-6.48-.37q-155.76,0-311.53,0c-9.62,0-15,3.94-14.87,10.88s5.2,10.52,14.6,10.52Z" transform="translate(-63.88 -85.63)"/><path d="M192,127.94q-58,0-115.95,0c-9.45,0-14.89,8.09-10.68,15.73,2.25,4.08,5.93,5.63,10.41,5.65q11,0,22,0H304.63c1.66,0,3.34,0,5-.11,6.58-.58,10.62-4.87,10.44-11S315.44,128,308.9,128q-46.48-.08-93,0Z" transform="translate(-63.88 -85.63)"/><path d="M298.77,234.81q47,0,94,0c9.83,0,15.61-8,11.52-15.74-2.47-4.7-6.74-6-11.75-6-23.17,0-46.34,0-69.52,0H206c-1.17,0-2.34-.06-3.5.05-6,.57-10.52,5.11-10.59,10.67s4.31,10.25,10.31,10.92a39.67,39.67,0,0,0,4.5.09Q252.77,234.83,298.77,234.81Z" transform="translate(-63.88 -85.63)"/><path d="M298.74,384q-47.51,0-95,0c-6.8,0-11.55,4.23-11.8,10.29-.25,5.91,4.43,10.56,11.13,11,1.16.08,2.33.06,3.5.06H390.06c1.67,0,3.34,0,5-.1,6.26-.55,10.85-5.4,10.56-11.08-.3-5.87-5-10.2-11.39-10.21Q346.5,383.93,298.74,384Z" transform="translate(-63.88 -85.63)"/><path d="M387.8,139.21c12.48-12.4,24-23.69,35.36-35.19,6.53-6.63,4.17-16.56-4.56-18.24a12.85,12.85,0,0,0-9.87,2.76c-14.59,13.89-28.79,28.19-43,42.51-4.45,4.5-4.36,10.72.11,15.24q21.11,21.28,42.48,42.3c4.71,4.62,10.89,4.51,15.21.31,4.48-4.36,4.6-10.69-.17-15.57C413.26,163,403,152.78,392.66,142.59A37.14,37.14,0,0,0,387.8,139.21Z" transform="translate(-63.88 -85.63)"/></svg>