<svg id="Layer_1" data-name="Layer 1" xmlns="http://www.w3.org/2000/svg" viewBox="0 0 363.06 319.77"><path d="M255.83,320h-155c-2,0-4,.11-6-.08a10.57,10.57,0,0,1-.75-21,41.23,41.23,0,0,1,6.48-.37q155.76,0,311.53,0c9.61,0,15,3.93,14.87,10.88S421.74,320,412.34,320Z" transform="translate(-63.88 -85.63)"/><path d="M298.87,127.94q58,0,116,0c9.45,0,14.88,8.09,10.68,15.73-2.25,4.08-5.93,5.63-10.41,5.64l-22,0H186.19c-1.67,0-3.34,0-5-.11-6.59-.58-10.62-4.87-10.45-11S175.37,128,181.92,128q46.47-.07,93,0Z" transform="translate(-63.88 -85.63)"/><path d="M192.05,234.81q-47,0-94,0c-9.84,0-15.61-8-11.53-15.74,2.47-4.7,6.74-6,11.75-6,23.17.05,46.35,0,69.52,0h117c1.16,0,2.34-.06,3.49,0,6,.57,10.52,5.11,10.59,10.67s-4.31,10.25-10.31,10.92a39.72,39.72,0,0,1-4.5.1Z" transform="translate(-63.88 -85.63)"/><path d="M192.07,384q47.51,0,95,0c6.8,0,11.55,4.23,11.81,10.29.24,5.91-4.43,10.56-11.14,11-1.16.09-2.33.07-3.5.07H100.75c-1.66,0-3.34,0-5-.11-6.27-.55-10.86-5.4-10.57-11.07.3-5.87,5-10.2,11.39-10.21Q144.32,383.93,192.07,384Z" transform="translate(-63.88 -85.63)"/><path d="M103,139.21C90.54,126.81,79,115.52,67.66,104c-6.53-6.63-4.17-16.56,4.56-18.24a12.85,12.85,0,0,1,9.87,2.76c14.59,13.89,28.8,28.19,43,42.51,4.45,4.5,4.37,10.72-.11,15.24q-21.11,21.28-42.48,42.3c-4.71,4.62-10.89,4.51-15.21.31-4.48-4.35-4.6-10.68.17-15.56C77.56,163,87.86,152.78,98.16,142.6A35.56,35.56,0,0,1,103,139.21Z" transform="translate(-63.88 -85.63)"/></svg>